<svg width="117" height="13" viewBox="0 0 117 13" fill="color: #fff" xmlns="http://www.w3.org/2000/svg">
<path d="M0.824 0.799999H5.384C6.568 0.799999 7.61333 1.04 8.52 1.52C9.42667 1.98933 10.1307 2.65067 10.632 3.504C11.1333 4.34667 11.384 5.312 11.384 6.4C11.384 7.488 11.1333 8.45867 10.632 9.312C10.1307 10.1547 9.42667 10.816 8.52 11.296C7.61333 11.7653 6.568 12 5.384 12H0.824V0.799999ZM5.32 10.976C6.30133 10.976 7.16 10.784 7.896 10.4C8.632 10.0053 9.20267 9.46667 9.608 8.784C10.0133 8.09067 10.216 7.296 10.216 6.4C10.216 5.504 10.0133 4.71467 9.608 4.032C9.20267 3.33867 8.632 2.8 7.896 2.416C7.16 2.02133 6.30133 1.824 5.32 1.824H2.008V10.976H5.32ZM21.6908 12L19.1308 8.4C18.8428 8.432 18.5441 8.448 18.2348 8.448H15.2268V12H14.0428V0.799999H18.2348C19.6641 0.799999 20.7841 1.14133 21.5948 1.824C22.4054 2.50667 22.8108 3.44533 22.8108 4.64C22.8108 5.51467 22.5868 6.256 22.1388 6.864C21.7014 7.46133 21.0721 7.89333 20.2508 8.16L22.9868 12H21.6908ZM18.2028 7.44C19.3121 7.44 20.1601 7.19467 20.7468 6.704C21.3334 6.21333 21.6267 5.52533 21.6267 4.64C21.6267 3.73333 21.3334 3.04 20.7468 2.56C20.1601 2.06933 19.3121 1.824 18.2028 1.824H15.2268V7.44H18.2028ZM33.5253 10.976V12H25.6053V0.799999H33.2853V1.824H26.7893V5.808H32.5813V6.816H26.7893V10.976H33.5253ZM43.3324 9.008H37.0924L35.7484 12H34.5164L39.6364 0.799999H40.8044L45.9244 12H44.6764L43.3324 9.008ZM42.9004 8.048L40.2124 2.032L37.5244 8.048H42.9004ZM59.4091 0.799999V12H58.2731V3.04L53.8731 10.576H53.3131L48.9131 3.088V12H47.7771V0.799999H48.7531L53.6171 9.104L58.4331 0.799999H59.4091ZM66.1464 12.096C65.3144 12.096 64.5144 11.9627 63.7464 11.696C62.989 11.4293 62.4024 11.0773 61.9864 10.64L62.4504 9.728C62.8557 10.1333 63.3944 10.464 64.0664 10.72C64.7384 10.9653 65.4317 11.088 66.1464 11.088C67.149 11.088 67.901 10.9067 68.4024 10.544C68.9037 10.1707 69.1544 9.69067 69.1544 9.104C69.1544 8.656 69.0157 8.29867 68.7384 8.032C68.4717 7.76533 68.141 7.56267 67.7464 7.424C67.3517 7.27467 66.8024 7.11467 66.0984 6.944C65.2557 6.73067 64.5837 6.528 64.0824 6.336C63.581 6.13333 63.149 5.82933 62.7864 5.424C62.4344 5.01867 62.2584 4.46933 62.2584 3.776C62.2584 3.21067 62.4077 2.69867 62.7064 2.24C63.005 1.77067 63.4637 1.39733 64.0824 1.12C64.701 0.842666 65.469 0.704 66.3864 0.704C67.0264 0.704 67.6504 0.794666 68.2584 0.976C68.877 1.14667 69.4104 1.38667 69.8584 1.696L69.4584 2.64C68.989 2.33067 68.4877 2.10133 67.9544 1.952C67.421 1.792 66.8984 1.712 66.3864 1.712C65.405 1.712 64.6637 1.904 64.1624 2.288C63.6717 2.66133 63.4264 3.14667 63.4264 3.744C63.4264 4.192 63.5597 4.55467 63.8264 4.832C64.1037 5.09867 64.445 5.30667 64.8504 5.456C65.2664 5.59467 65.821 5.74933 66.5144 5.92C67.3357 6.12267 67.997 6.32533 68.4984 6.528C69.0104 6.72 69.4424 7.01867 69.7944 7.424C70.1464 7.81867 70.3224 8.35733 70.3224 9.04C70.3224 9.60533 70.1677 10.1227 69.8584 10.592C69.5597 11.0507 69.0957 11.4187 68.4664 11.696C67.837 11.9627 67.0637 12.096 66.1464 12.096ZM82.2621 0.799999V12H81.0941V6.832H74.0861V12H72.9021V0.799999H74.0861V5.792H81.0941V0.799999H82.2621ZM92.9418 9.008H86.7018L85.3578 12H84.1258L89.2458 0.799999H90.4138L95.5338 12H94.2858L92.9418 9.008ZM92.5098 8.048L89.8218 2.032L87.1338 8.048H92.5098ZM105.035 12L102.475 8.4C102.187 8.432 101.888 8.448 101.579 8.448H98.5705V12H97.3865V0.799999H101.579C103.008 0.799999 104.128 1.14133 104.939 1.824C105.749 2.50667 106.155 3.44533 106.155 4.64C106.155 5.51467 105.931 6.256 105.483 6.864C105.045 7.46133 104.416 7.89333 103.595 8.16L106.331 12H105.035ZM101.547 7.44C102.656 7.44 103.504 7.19467 104.091 6.704C104.677 6.21333 104.97 5.52533 104.97 4.64C104.97 3.73333 104.677 3.04 104.091 2.56C103.504 2.06933 102.656 1.824 101.547 1.824H98.5705V7.44H101.547ZM116.869 10.976V12H108.949V0.799999H116.629V1.824H110.133V5.808H115.925V6.816H110.133V10.976H116.869Z" fill="#FF4E50"/>
</svg>
